<svg width="32" height="32" viewBox="0 0 32 32" fill="none" xmlns="http://www.w3.org/2000/svg">
<path d="M28.9467 27.0533C29.1991 27.3036 29.3411 27.6444 29.3411 28C29.3411 28.3555 29.1991 28.6963 28.9467 28.9466C28.6963 29.199 28.3555 29.341 28 29.341C27.6445 29.341 27.3037 29.199 27.0533 28.9466L16 17.88L4.94667 28.9466C4.69631 29.199 4.35552 29.341 4 29.341C3.64448 29.341 3.30369 29.199 3.05333 28.9466C2.80092 28.6963 2.65894 28.3555 2.65894 28C2.65894 27.6444 2.80092 27.3036 3.05333 27.0533L14.12 16L3.05333 4.94662C2.71512 4.60841 2.58304 4.11545 2.70683 3.65345C2.83062 3.19144 3.19149 2.83058 3.6535 2.70678C4.1155 2.58299 4.60846 2.71507 4.94667 3.05329L16 14.12L27.0533 3.05329C27.5762 2.53046 28.4238 2.53046 28.9467 3.05329C29.4695 3.57612 29.4695 4.42379 28.9467 4.94662L17.88 16L28.9467 27.0533Z" fill="white"/>
</svg>
