<svg width="154" height="44" viewBox="0 0 154 44" fill="none" xmlns="http://www.w3.org/2000/svg">
<path d="M60.6662 18.9996V16.6236C61.3849 16.6236 62.0596 16.4916 62.6902 16.2276C63.3209 15.9489 63.8709 15.5676 64.3402 15.0836C64.8096 14.5996 65.1762 14.0349 65.4402 13.3896C65.7042 12.7443 65.8362 12.0476 65.8362 11.2996C65.8362 10.5516 65.7042 9.85494 65.4402 9.20961C65.1762 8.56428 64.8096 7.99961 64.3402 7.51561C63.8709 7.03161 63.3209 6.65761 62.6902 6.39361C62.0596 6.11494 61.3849 5.97561 60.6662 5.97561V3.59961C62.1769 3.59961 63.5116 3.92961 64.6702 4.58961C65.8436 5.23494 66.7602 6.13694 67.4202 7.29561C68.0949 8.45428 68.4322 9.78894 68.4322 11.2996C68.4322 12.7956 68.0949 14.1229 67.4202 15.2816C66.7602 16.4403 65.8436 17.3496 64.6702 18.0096C63.5116 18.6696 62.1769 18.9996 60.6662 18.9996ZM57.4762 18.9996V16.6236H60.6662V18.9996H57.4762ZM55.8262 18.9996V3.59961H58.3782V18.9996H55.8262ZM57.4762 5.97561V3.59961H60.6662V5.97561H57.4762Z" fill="white"/>
<path d="M75.2591 19.2636C74.1884 19.2636 73.2351 19.0216 72.3991 18.5376C71.5631 18.0389 70.9105 17.3569 70.4411 16.4916C69.9718 15.6263 69.7371 14.6289 69.7371 13.4996C69.7371 12.3703 69.9791 11.3729 70.4631 10.5076C70.9471 9.64228 71.6071 8.96761 72.4431 8.48361C73.2791 7.98494 74.2471 7.73561 75.3471 7.73561C76.3151 7.73561 77.1951 7.99228 77.9871 8.50561C78.7791 9.00428 79.4025 9.73028 79.8571 10.6836C80.3265 11.6369 80.5611 12.7736 80.5611 14.0936H78.0751C78.0898 13.1403 77.9798 12.3556 77.7451 11.7396C77.5251 11.1236 77.2025 10.6689 76.7771 10.3756C76.3518 10.0676 75.8458 9.91361 75.2591 9.91361C74.6431 9.91361 74.1151 10.0529 73.6751 10.3316C73.2498 10.6103 72.9198 11.0209 72.6851 11.5636C72.4505 12.0916 72.3331 12.7589 72.3331 13.5656C72.3331 14.2843 72.4725 14.9003 72.7511 15.4136C73.0298 15.9269 73.4038 16.3229 73.8731 16.6016C74.3571 16.8656 74.8925 16.9976 75.4791 16.9976C76.1245 16.9976 76.6598 16.8509 77.0851 16.5576C77.5105 16.2496 77.8405 15.8609 78.0751 15.3916L80.3411 16.3596C80.0331 16.9463 79.6445 17.4596 79.1751 17.8996C78.7058 18.3396 78.1411 18.6769 77.4811 18.9116C76.8211 19.1463 76.0805 19.2636 75.2591 19.2636ZM71.3431 14.0936L71.3651 12.1356H79.2851V14.0936H71.3431Z" fill="white"/>
<path d="M85.2684 18.9996L89.5584 7.99961H92.1104L87.5784 18.9996H85.2684ZM85.0924 18.9996L80.5384 7.99961H83.0684L87.3804 18.9996H85.0924Z" fill="white"/>
<path d="M97.9475 19.2636C96.8768 19.2636 95.9235 19.0216 95.0875 18.5376C94.2515 18.0389 93.5988 17.3569 93.1295 16.4916C92.6601 15.6263 92.4255 14.6289 92.4255 13.4996C92.4255 12.3703 92.6675 11.3729 93.1515 10.5076C93.6355 9.64228 94.2955 8.96761 95.1315 8.48361C95.9675 7.98494 96.9355 7.73561 98.0355 7.73561C99.0035 7.73561 99.8835 7.99228 100.675 8.50561C101.467 9.00428 102.091 9.73028 102.545 10.6836C103.015 11.6369 103.249 12.7736 103.249 14.0936H100.763C100.778 13.1403 100.668 12.3556 100.433 11.7396C100.213 11.1236 99.8908 10.6689 99.4655 10.3756C99.0401 10.0676 98.5341 9.91361 97.9475 9.91361C97.3315 9.91361 96.8035 10.0529 96.3635 10.3316C95.9381 10.6103 95.6081 11.0209 95.3735 11.5636C95.1388 12.0916 95.0215 12.7589 95.0215 13.5656C95.0215 14.2843 95.1608 14.9003 95.4395 15.4136C95.7181 15.9269 96.0921 16.3229 96.5615 16.6016C97.0455 16.8656 97.5808 16.9976 98.1675 16.9976C98.8128 16.9976 99.3481 16.8509 99.7735 16.5576C100.199 16.2496 100.529 15.8609 100.763 15.3916L103.029 16.3596C102.721 16.9463 102.333 17.4596 101.863 17.8996C101.394 18.3396 100.829 18.6769 100.169 18.9116C99.5095 19.1463 98.7688 19.2636 97.9475 19.2636ZM94.0315 14.0936L94.0535 12.1356H101.973V14.0936H94.0315Z" fill="white"/>
<path d="M104.823 18.9996L104.845 3.59961H107.309L107.287 18.9996H104.823Z" fill="white"/>
<path d="M114.818 19.2636C113.703 19.2636 112.713 19.0216 111.848 18.5376C110.997 18.0389 110.33 17.3569 109.846 16.4916C109.362 15.6263 109.12 14.6289 109.12 13.4996C109.12 12.3703 109.354 11.3729 109.824 10.5076C110.308 9.64228 110.975 8.96761 111.826 8.48361C112.691 7.98494 113.674 7.73561 114.774 7.73561C115.888 7.73561 116.871 7.98494 117.722 8.48361C118.572 8.96761 119.24 9.64228 119.724 10.5076C120.208 11.3729 120.45 12.3703 120.45 13.4996C120.45 14.6289 120.208 15.6263 119.724 16.4916C119.24 17.3569 118.572 18.0389 117.722 18.5376C116.886 19.0216 115.918 19.2636 114.818 19.2636ZM114.818 16.8876C115.404 16.8876 115.918 16.7483 116.358 16.4696C116.812 16.1763 117.164 15.7729 117.414 15.2596C117.678 14.7463 117.81 14.1596 117.81 13.4996C117.81 12.8396 117.678 12.2529 117.414 11.7396C117.164 11.2263 116.805 10.8303 116.336 10.5516C115.881 10.2583 115.36 10.1116 114.774 10.1116C114.187 10.1116 113.666 10.2583 113.212 10.5516C112.757 10.8303 112.398 11.2263 112.134 11.7396C111.884 12.2529 111.76 12.8396 111.76 13.4996C111.76 14.1596 111.884 14.7463 112.134 15.2596C112.398 15.7729 112.757 16.1763 113.212 16.4696C113.681 16.7483 114.216 16.8876 114.818 16.8876Z" fill="white"/>
<path d="M122.358 23.3996V7.99961H124.668L124.822 10.0236V23.3996H122.358ZM128.298 19.2636C127.374 19.2636 126.574 19.0289 125.9 18.5596C125.24 18.0756 124.734 17.4009 124.382 16.5356C124.03 15.6703 123.854 14.6583 123.854 13.4996C123.854 12.3263 124.03 11.3143 124.382 10.4636C124.734 9.59828 125.24 8.93094 125.9 8.46161C126.574 7.97761 127.374 7.73561 128.298 7.73561C129.295 7.73561 130.16 7.97761 130.894 8.46161C131.642 8.93094 132.221 9.59828 132.632 10.4636C133.057 11.3143 133.27 12.3263 133.27 13.4996C133.27 14.6583 133.057 15.6703 132.632 16.5356C132.221 17.4009 131.642 18.0756 130.894 18.5596C130.16 19.0289 129.295 19.2636 128.298 19.2636ZM127.682 17.0196C128.268 17.0196 128.789 16.8729 129.244 16.5796C129.698 16.2716 130.058 15.8536 130.322 15.3256C130.6 14.7976 130.74 14.1889 130.74 13.4996C130.74 12.8103 130.608 12.2016 130.344 11.6736C130.094 11.1456 129.742 10.7349 129.288 10.4416C128.833 10.1483 128.305 10.0016 127.704 10.0016C127.146 10.0016 126.648 10.1483 126.208 10.4416C125.768 10.7349 125.423 11.1456 125.174 11.6736C124.939 12.2016 124.822 12.8103 124.822 13.4996C124.822 14.1889 124.939 14.7976 125.174 15.3256C125.423 15.8536 125.76 16.2716 126.186 16.5796C126.626 16.8729 127.124 17.0196 127.682 17.0196Z" fill="white"/>
<path d="M139.973 19.2636C138.902 19.2636 137.949 19.0216 137.113 18.5376C136.277 18.0389 135.624 17.3569 135.155 16.4916C134.685 15.6263 134.451 14.6289 134.451 13.4996C134.451 12.3703 134.693 11.3729 135.177 10.5076C135.661 9.64228 136.321 8.96761 137.157 8.48361C137.993 7.98494 138.961 7.73561 140.061 7.73561C141.029 7.73561 141.909 7.99228 142.701 8.50561C143.493 9.00428 144.116 9.73028 144.571 10.6836C145.04 11.6369 145.275 12.7736 145.275 14.0936H142.789C142.803 13.1403 142.693 12.3556 142.459 11.7396C142.239 11.1236 141.916 10.6689 141.491 10.3756C141.065 10.0676 140.559 9.91361 139.973 9.91361C139.357 9.91361 138.829 10.0529 138.389 10.3316C137.963 10.6103 137.633 11.0209 137.399 11.5636C137.164 12.0916 137.047 12.7589 137.047 13.5656C137.047 14.2843 137.186 14.9003 137.465 15.4136C137.743 15.9269 138.117 16.3229 138.587 16.6016C139.071 16.8656 139.606 16.9976 140.193 16.9976C140.838 16.9976 141.373 16.8509 141.799 16.5576C142.224 16.2496 142.554 15.8609 142.789 15.3916L145.055 16.3596C144.747 16.9463 144.358 17.4596 143.889 17.8996C143.419 18.3396 142.855 18.6769 142.195 18.9116C141.535 19.1463 140.794 19.2636 139.973 19.2636ZM136.057 14.0936L136.079 12.1356H143.999V14.0936H136.057Z" fill="white"/>
<path d="M148.476 13.1476C148.476 11.9596 148.703 10.9843 149.158 10.2216C149.613 9.45894 150.199 8.89428 150.918 8.52761C151.651 8.14628 152.414 7.95561 153.206 7.95561V10.3096C152.531 10.3096 151.893 10.4049 151.292 10.5956C150.705 10.7716 150.229 11.0649 149.862 11.4756C149.495 11.8863 149.312 12.4289 149.312 13.1036L148.476 13.1476ZM146.848 18.9996V7.99961H149.312V18.9996H146.848Z" fill="white"/>
<path d="M66.4962 39.9996L60.4902 24.5996H63.0422L69.2022 39.9996H66.4962ZM54.1982 39.9996L60.3362 24.5996H62.9102L56.9042 39.9996H54.1982ZM57.0802 36.2156V33.9496H66.2982V36.2156H57.0802Z" fill="white"/>
<path d="M72.6611 36.9196L71.1651 35.2256L76.8851 28.9996H79.8551L72.6611 36.9196ZM70.3071 39.9996V24.5996H72.7711V39.9996H70.3071ZM77.3031 39.9996L73.4311 34.3016L75.0371 32.5856L80.2291 39.9996H77.3031Z" fill="white"/>
<path d="M87.5786 39.9996L87.4686 34.3456C87.4686 33.5976 87.3879 32.9743 87.2266 32.4756C87.0653 31.9769 86.8159 31.5956 86.4786 31.3316C86.1413 31.0676 85.6866 30.9356 85.1146 30.9356C84.6013 30.9356 84.1466 31.0456 83.7506 31.2656C83.3546 31.4856 83.0246 31.8229 82.7606 32.2776L80.5606 31.5076C80.8099 31.0236 81.1326 30.5689 81.5286 30.1436C81.9246 29.7183 82.4233 29.3809 83.0246 29.1316C83.6259 28.8676 84.3446 28.7356 85.1806 28.7356C86.2366 28.7356 87.1166 28.9336 87.8206 29.3296C88.5393 29.7256 89.0746 30.3123 89.4266 31.0896C89.7786 31.8669 89.9546 32.8276 89.9546 33.9716V39.9996H87.5786ZM84.4546 40.2636C83.1493 40.2636 82.1299 39.9703 81.3966 39.3836C80.6779 38.7969 80.3186 37.9683 80.3186 36.8976C80.3186 35.7536 80.6999 34.8809 81.4626 34.2796C82.2399 33.6783 83.3179 33.3776 84.6966 33.3776H88.1506L88.1726 35.2696H85.4666C84.4839 35.2696 83.7946 35.4089 83.3986 35.6876C83.0173 35.9516 82.8266 36.3329 82.8266 36.8316C82.8266 37.2569 82.9953 37.5943 83.3326 37.8436C83.6846 38.0783 84.1686 38.1956 84.7846 38.1956C85.3273 38.1956 85.7966 38.0709 86.1926 37.8216C86.6033 37.5576 86.9186 37.2203 87.1386 36.8096C87.3586 36.3843 87.4686 35.9296 87.4686 35.4456H88.3926C88.3926 36.9416 88.0699 38.1223 87.4246 38.9876C86.7939 39.8383 85.8039 40.2636 84.4546 40.2636Z" fill="white"/>
<path d="M99.9706 39.9996L99.8606 37.9536V24.5996H102.303V39.9996H99.9706ZM96.3846 40.2636C95.3873 40.2636 94.5146 40.0289 93.7666 39.5596C93.0333 39.0756 92.4539 38.4009 92.0286 37.5356C91.6179 36.6703 91.4126 35.6583 91.4126 34.4996C91.4126 33.3263 91.6179 32.3143 92.0286 31.4636C92.4539 30.5983 93.0333 29.9309 93.7666 29.4616C94.5146 28.9776 95.3873 28.7356 96.3846 28.7356C97.3086 28.7356 98.1006 28.9776 98.7606 29.4616C99.4353 29.9309 99.9486 30.5983 100.301 31.4636C100.653 32.3143 100.829 33.3263 100.829 34.4996C100.829 35.6583 100.653 36.6703 100.301 37.5356C99.9486 38.4009 99.4353 39.0756 98.7606 39.5596C98.1006 40.0289 97.3086 40.2636 96.3846 40.2636ZM97.0006 38.0196C97.5579 38.0196 98.0493 37.8729 98.4746 37.5796C98.9146 37.2716 99.2519 36.8536 99.4866 36.3256C99.7359 35.7976 99.8606 35.1889 99.8606 34.4996C99.8606 33.8103 99.7359 33.2016 99.4866 32.6736C99.2519 32.1456 98.9146 31.7349 98.4746 31.4416C98.0493 31.1483 97.5506 31.0016 96.9786 31.0016C96.3919 31.0016 95.8713 31.1483 95.4166 31.4416C94.9619 31.7349 94.6026 32.1456 94.3386 32.6736C94.0893 33.2016 93.9573 33.8103 93.9426 34.4996C93.9573 35.1889 94.0893 35.7976 94.3386 36.3256C94.6026 36.8536 94.9619 37.2716 95.4166 37.5796C95.8859 37.8729 96.4139 38.0196 97.0006 38.0196Z" fill="white"/>
<path d="M109.625 40.2636C108.554 40.2636 107.601 40.0216 106.765 39.5376C105.929 39.0389 105.276 38.3569 104.807 37.4916C104.337 36.6263 104.103 35.6289 104.103 34.4996C104.103 33.3703 104.345 32.3729 104.829 31.5076C105.313 30.6423 105.973 29.9676 106.809 29.4836C107.645 28.9849 108.613 28.7356 109.713 28.7356C110.681 28.7356 111.561 28.9923 112.353 29.5056C113.145 30.0043 113.768 30.7303 114.223 31.6836C114.692 32.6369 114.927 33.7736 114.927 35.0936H112.441C112.455 34.1403 112.345 33.3556 112.111 32.7396C111.891 32.1236 111.568 31.6689 111.143 31.3756C110.717 31.0676 110.211 30.9136 109.625 30.9136C109.009 30.9136 108.481 31.0529 108.041 31.3316C107.615 31.6103 107.285 32.0209 107.051 32.5636C106.816 33.0916 106.699 33.7589 106.699 34.5656C106.699 35.2843 106.838 35.9003 107.117 36.4136C107.395 36.9269 107.769 37.3229 108.239 37.6016C108.723 37.8656 109.258 37.9976 109.845 37.9976C110.49 37.9976 111.025 37.8509 111.451 37.5576C111.876 37.2496 112.206 36.8609 112.441 36.3916L114.707 37.3596C114.399 37.9463 114.01 38.4596 113.541 38.8996C113.071 39.3396 112.507 39.6769 111.847 39.9116C111.187 40.1463 110.446 40.2636 109.625 40.2636ZM105.709 35.0936L105.731 33.1356H113.651V35.0936H105.709Z" fill="white"/>
<path d="M116.5 39.9996V28.9996H118.81L118.964 31.0236V39.9996H116.5ZM123.958 39.9996V34.3676L126.422 33.7076V39.9996H123.958ZM131.438 39.9996V34.3676L133.88 33.7076V39.9996H131.438ZM123.958 34.3676C123.958 33.4876 123.856 32.8129 123.65 32.3436C123.46 31.8596 123.181 31.5223 122.814 31.3316C122.462 31.1409 122.044 31.0456 121.56 31.0456C120.739 31.0309 120.101 31.3023 119.646 31.8596C119.192 32.4169 118.964 33.2163 118.964 34.2576H118.04C118.04 33.0989 118.209 32.1089 118.546 31.2876C118.884 30.4516 119.368 29.8209 119.998 29.3956C120.629 28.9556 121.377 28.7356 122.242 28.7356C123.577 28.7356 124.604 29.1463 125.322 29.9676C126.056 30.7743 126.422 32.0209 126.422 33.7076L123.958 34.3676ZM131.438 34.3676C131.438 33.4876 131.336 32.8129 131.13 32.3436C130.925 31.8596 130.639 31.5223 130.272 31.3316C129.92 31.1409 129.51 31.0456 129.04 31.0456C128.204 31.0309 127.559 31.3023 127.104 31.8596C126.65 32.4169 126.422 33.2163 126.422 34.2576H125.498C125.498 33.0989 125.667 32.1089 126.004 31.2876C126.342 30.4516 126.826 29.8209 127.456 29.3956C128.087 28.9556 128.835 28.7356 129.7 28.7356C131.035 28.7356 132.069 29.1463 132.802 29.9676C133.536 30.7743 133.895 32.0209 133.88 33.7076L131.438 34.3676Z" fill="white"/>
<path d="M136.109 39.9996L136.131 28.9996H138.573L138.551 39.9996H136.109ZM137.341 26.9096C136.945 26.9096 136.6 26.7703 136.307 26.4916C136.028 26.1983 135.889 25.8536 135.889 25.4576C135.889 25.0616 136.028 24.7243 136.307 24.4456C136.6 24.1669 136.945 24.0276 137.341 24.0276C137.737 24.0276 138.074 24.1669 138.353 24.4456C138.646 24.7243 138.793 25.0616 138.793 25.4576C138.793 25.8536 138.646 26.1983 138.353 26.4916C138.074 26.7703 137.737 26.9096 137.341 26.9096Z" fill="white"/>
<path d="M146.053 40.2636C144.982 40.2636 144.029 40.0216 143.193 39.5376C142.357 39.0389 141.704 38.3569 141.235 37.4916C140.765 36.6263 140.531 35.6289 140.531 34.4996C140.531 33.3703 140.773 32.3729 141.257 31.5076C141.741 30.6423 142.401 29.9676 143.237 29.4836C144.073 28.9849 145.041 28.7356 146.141 28.7356C147.109 28.7356 147.989 28.9923 148.781 29.5056C149.573 30.0043 150.196 30.7303 150.651 31.6836C151.12 32.6369 151.355 33.7736 151.355 35.0936H148.869C148.883 34.1403 148.773 33.3556 148.539 32.7396C148.319 32.1236 147.996 31.6689 147.571 31.3756C147.145 31.0676 146.639 30.9136 146.053 30.9136C145.437 30.9136 144.909 31.0529 144.469 31.3316C144.043 31.6103 143.713 32.0209 143.479 32.5636C143.244 33.0916 143.127 33.7589 143.127 34.5656C143.127 35.2843 143.266 35.9003 143.545 36.4136C143.823 36.9269 144.197 37.3229 144.667 37.6016C145.151 37.8656 145.686 37.9976 146.273 37.9976C146.918 37.9976 147.453 37.8509 147.879 37.5576C148.304 37.2496 148.634 36.8609 148.869 36.3916L151.135 37.3596C150.827 37.9463 150.438 38.4596 149.969 38.8996C149.499 39.3396 148.935 39.6769 148.275 39.9116C147.615 40.1463 146.874 40.2636 146.053 40.2636ZM142.137 35.0936L142.159 33.1356H150.079V35.0936H142.137Z" fill="white"/>
<path d="M23.3311 27.0299C23.3406 27.0929 23.3796 27.1476 23.4361 27.1772C23.4925 27.2067 23.5597 27.2076 23.617 27.1795L31.9549 23.0864C32.0078 23.0604 32.0466 23.0125 32.0608 22.9553C32.1661 22.5331 32.2002 22.1144 32.2002 21.6629C32.2002 21.1637 32.131 20.7085 32.0641 20.3059C32.0534 20.2419 32.0125 20.1871 31.9542 20.1588L23.6163 16.1058C23.5595 16.0782 23.4931 16.079 23.437 16.108C23.381 16.137 23.3419 16.1907 23.3315 16.2529L23.3303 16.2603C23.2986 16.4511 23.2639 16.6596 23.2622 16.8712C23.2287 17.0846 23.2288 17.3321 23.2288 17.5594V17.5698C23.2288 17.6547 23.2369 17.7478 23.2446 17.8346L23.2462 17.8531C23.2546 17.9489 23.2621 18.0411 23.2621 18.1316C23.2621 18.1426 23.263 18.1536 23.2648 18.1644C23.2794 18.2518 23.2871 18.34 23.2952 18.4329L23.2962 18.445C23.3044 18.5383 23.3135 18.6404 23.333 18.7341C23.3461 18.797 23.3886 18.8499 23.4474 18.8761L29.6162 21.6264L23.4446 24.4911C23.3873 24.5177 23.3459 24.5699 23.333 24.6318C23.2995 24.7932 23.2639 25.0028 23.2622 25.2178C23.2288 25.4293 23.2288 25.6393 23.2288 25.8672V25.8764C23.2288 26.2109 23.2635 26.5828 23.3311 27.0299Z" fill="#FD5B4F"/>
<path fill-rule="evenodd" clip-rule="evenodd" d="M20.5642 11.8228C20.6206 11.8524 20.6597 11.9071 20.6692 11.9701C20.7367 12.4172 20.7715 12.789 20.7715 13.1236V13.1329C20.7715 13.3608 20.7715 13.5707 20.7381 13.7822C20.7363 13.9972 20.7008 14.2067 20.6672 14.3681C20.6544 14.43 20.613 14.4822 20.5556 14.5089L14.384 17.3735L20.5529 20.1239C20.6116 20.1501 20.6542 20.2029 20.6672 20.2659C20.6867 20.3596 20.6959 20.4617 20.704 20.555L20.7051 20.567C20.7132 20.6599 20.7209 20.7481 20.7354 20.8356C20.7372 20.8464 20.7381 20.8574 20.7381 20.8684C20.7381 20.9588 20.7457 21.0511 20.754 21.1469L20.7557 21.1653C20.7633 21.2521 20.7715 21.3452 20.7715 21.4302V21.4406C20.7715 21.6679 20.7715 21.9154 20.7381 22.1288C20.7363 22.3404 20.7017 22.5488 20.67 22.7396L20.6687 22.7471C20.6584 22.8093 20.6193 22.863 20.5632 22.892C20.5072 22.9209 20.4407 22.9217 20.384 22.8941L12.046 18.8412C11.9877 18.8128 11.9468 18.758 11.9362 18.6941C11.8692 18.2915 11.8 17.8363 11.8 17.3371C11.8 16.8855 11.8341 16.4669 11.9394 16.0447C11.9537 15.9875 11.9924 15.9395 12.0453 15.9136L20.3833 11.8205C20.4405 11.7924 20.5077 11.7932 20.5642 11.8228Z" fill="#FD5B4F"/>
<path fill-rule="evenodd" clip-rule="evenodd" d="M39 4.5H5C2.51472 4.5 0.5 6.51472 0.5 9V30C0.5 32.4853 2.51472 34.5 5 34.5H39C41.4853 34.5 43.5 32.4853 43.5 30V9C43.5 6.51472 41.4853 4.5 39 4.5ZM3 9C3 7.89543 3.89543 7 5 7H39C40.1046 7 41 7.89543 41 9V30C41 31.1046 40.1046 32 39 32H5C3.89543 32 3 31.1046 3 30V9Z" fill="#FD5B4F"/>
<path d="M5.25 37C4.55964 37 4 37.5596 4 38.25C4 38.9404 4.55964 39.5 5.25 39.5H38.75C39.4404 39.5 40 38.9404 40 38.25C40 37.5596 39.4404 37 38.75 37H5.25Z" fill="#FD5B4F"/>
</svg>
