<?xml version="1.0" encoding="UTF-8"?>
<svg id="Capa_2" data-name="Capa 2" xmlns="http://www.w3.org/2000/svg" viewBox="0 0 280 274.51">
  <g id="Capa_1-2" data-name="Capa 1">
        <path d="m127.34,149.56c-16.1-2.01-46.79,25.53-58.69,52.97-3.06,7.06-8.75,20.66-4.48,34.29.96,3.06,6.55,19.26,26.2,22.13.28.04.55.08.83.11,13.7,1.71,32.95-2.99,44.58-15.82,11.52-12.71,12.24-29.57,12.28-35.99,0-1.8-.02-3.54-.09-5.19-.61-17.13-3.93-36.4-13.75-48.92-2.05-2.61-4-3.08-6.24-3.49-.21-.04-.42-.07-.64-.1" fill="#f64e85"/>
        <path d="m71.71,85.2c-7.4-.92-20.13-1.75-35.26,5.62-3.69,1.8-23.38,11.8-32.16,31.62-6.14,13.86-6.58,31.7,4.67,39.48,3.35,2.31,7.41,3.53,11.65,4.06,9.61,1.2,20.09-1.15,25.06-2.38,2.01-.5,3.95-1.03,5.82-1.55,19.29-5.45,41.77-14.13,58.54-27.18,3.5-2.72,4.59-4.74,5.67-7.03,7.7-16.2-14.58-38.62-42.22-42.39-.55-.07-1.14-.15-1.76-.23" fill="#f78a4c"/>
        <path d="m180.34.34c-13.7-1.71-32.95,3-44.58,15.83-11.53,12.71-12.25,29.57-12.28,35.99-.02,1.8.03,3.53.08,5.19.62,17.12,3.94,36.4,13.77,48.92,2.04,2.61,3.99,3.09,6.24,3.49.21.04.43.07.64.1,16.1,2.01,46.78-25.53,58.67-52.96,3.07-7.07,8.76-20.67,4.48-34.29-.96-3.06-6.54-19.27-26.18-22.14-.28-.04-.55-.08-.83-.11" fill="#a0f0fd"/>
        <path d="m250.92,93.43c-9.6-1.2-20.09,1.15-25.05,2.39-2,.49-3.96,1.03-5.82,1.55-19.31,5.46-41.77,14.14-58.55,27.19-3.49,2.72-4.57,4.73-5.67,7.03-7.69,16.2,14.59,38.62,42.23,42.38.57.08,1.19.16,1.85.24,7.4.92,20.09,1.71,35.18-5.64,3.69-1.8,23.37-11.79,32.15-31.61,6.14-13.86,6.59-31.7-4.66-39.47-3.35-2.31-7.42-3.53-11.66-4.06" fill="#8732f8"/>
        <path d="m173.13,177.53c-1.22-.15-2.45-.24-3.68-.26-1.93-.03-3,.47-4.19,1.1-8.41,4.45-12.31,22.21-7.36,33.63,1.26,2.9,3.78,8.42,10.89,10.68.54.17,1.87.57,3.8.81,3.8.47,9.9.33,16.63-3.43,7.09-3.96,14.46-11.69,14.99-19.09.51-7.19-5.53-11.96-7.94-13.69-.67-.49-1.34-.94-1.99-1.37-5.86-3.82-13.25-7.4-21.15-8.38" fill="#cb4a74"/>
        <path d="m65.43,167.76c-7.37-.92-18.6,1.44-27.86,6.69-3.6,2.04-10.48,6.05-15.02,13.57-1.02,1.69-6.31,10.82-2.87,19.02,1.9,4.52,6.37,8.55,12.15,9.27,1.55.19,3.2.15,4.92-.19,7.89-1.54,14.93-8.74,17.55-11.57.73-.79,1.43-1.57,2.09-2.32,6.84-7.79,13.91-17.48,16.7-26.47.58-1.87.31-2.77-.05-3.74-.89-2.38-3.71-3.78-7.61-4.27" fill="#d4ed77"/>
        <path d="m98.94,35.91c-3.8-.47-9.9-.33-16.64,3.43-7.09,3.96-14.46,11.69-14.98,19.09-.51,7.19,5.53,11.96,7.94,13.7.68.49,1.35.94,2,1.36,5.86,3.82,13.26,7.4,21.16,8.39,1.21.15,2.43.24,3.66.26,1.93.03,3.01-.48,4.2-1.11,8.41-4.44,12.3-22.2,7.35-33.62-1.26-2.9-3.77-8.42-10.89-10.68-.54-.17-1.87-.57-3.79-.81" fill="#ffd331"/>
        <path d="m239.7,43.08c-1.55-.19-3.2-.15-4.92.19-7.88,1.55-14.92,8.75-17.54,11.57-.74.8-1.44,1.57-2.1,2.32-6.83,7.78-13.9,17.47-16.69,26.47-.59,1.88-.33,2.78.04,3.75.89,2.38,3.72,3.78,7.62,4.27,7.38.92,18.6-1.44,27.86-6.7,3.6-2.04,10.47-6.04,15.02-13.57,1.02-1.69,6.31-10.81,2.87-19.02-1.91-4.52-6.37-8.55-12.15-9.27" fill="#66a0d1"/>
  </g>
</svg>